<svg width="84" height="84" viewBox="0 0 84 84" fill="none" xmlns="http://www.w3.org/2000/svg">
<rect width="84" height="84" rx="42" fill="url(#paint0_linear_70_520)"/>
<path d="M42 50.9375C45.797 50.9375 48.875 47.8595 48.875 44.0625C48.875 40.2655 45.797 37.1875 42 37.1875C38.203 37.1875 35.125 40.2655 35.125 44.0625C35.125 47.8595 38.203 50.9375 42 50.9375Z" stroke="white" stroke-width="3" stroke-linecap="round" stroke-linejoin="round"/>
<path d="M53.6875 39.9375C55.2889 39.9348 56.8688 40.3064 58.3012 41.0226C59.7336 41.7388 60.9788 42.7798 61.9375 44.0625" stroke="white" stroke-width="3" stroke-linecap="round" stroke-linejoin="round"/>
<path d="M22.0625 44.0625C23.0212 42.7798 24.2664 41.7388 25.6988 41.0226C27.1312 40.3064 28.7111 39.9348 30.3125 39.9375" stroke="white" stroke-width="3" stroke-linecap="round" stroke-linejoin="round"/>
<path d="M32.1001 57.125C33.0056 55.2706 34.4137 53.7078 36.164 52.6147C37.9143 51.5215 39.9365 50.9419 42.0001 50.9419C44.0637 50.9419 46.0859 51.5215 47.8362 52.6147C49.5865 53.7078 50.9946 55.2706 51.9001 57.125" stroke="white" stroke-width="3" stroke-linecap="round" stroke-linejoin="round"/>
<path d="M30.3125 39.9375C29.2686 39.9386 28.2459 39.6425 27.364 39.084C26.4821 38.5254 25.7774 37.7274 25.3322 36.7832C24.887 35.839 24.7197 34.7876 24.8498 33.7519C24.9799 32.7161 25.4021 31.7388 26.0671 30.9341C26.732 30.1294 27.6123 29.5305 28.6049 29.2075C29.5976 28.8844 30.6617 28.8506 31.6728 29.1098C32.684 29.3691 33.6006 29.9108 34.3153 30.6716C35.0301 31.4324 35.5136 32.3809 35.7093 33.4062" stroke="white" stroke-width="3" stroke-linecap="round" stroke-linejoin="round"/>
<path d="M48.2905 33.4062C48.4863 32.3809 48.9698 31.4324 49.6845 30.6716C50.3993 29.9108 51.3158 29.3691 52.327 29.1098C53.3382 28.8506 54.4023 28.8844 55.395 29.2075C56.3876 29.5305 57.2678 30.1294 57.9328 30.9341C58.5977 31.7388 59.0199 32.7161 59.1501 33.7519C59.2802 34.7876 59.1129 35.839 58.6677 36.7832C58.2225 37.7274 57.5177 38.5254 56.6358 39.084C55.7539 39.6425 54.7313 39.9386 53.6874 39.9375" stroke="white" stroke-width="3" stroke-linecap="round" stroke-linejoin="round"/>
<defs>
<linearGradient id="paint0_linear_70_520" x1="42" y1="0" x2="42" y2="84" gradientUnits="userSpaceOnUse">
<stop stop-color="#92DAF0"/>
<stop offset="1" stop-color="#21C9FF"/>
</linearGradient>
</defs>
</svg>
